# xmcd
#
# Track frame offsets:
#	150
#	14214
#	28105
#	41611
#	61198
#	75149
#	91194
#	115812
#	129460
#	145956
#	159213
#	179458
#	195123
#	211997
#	230162
#	247980
#	264259
#
# Disc length: 3846 seconds
#
# Revision: 1
# Processed by: cddbd v1.5.2PL0 Copyright (c) Steve Scherf et al.
# Submitted via: audiograbber 1.83.01
#
DISCID=d70f0411
DTITLE=The Time Jumpers - Kid Sister
DYEAR=2016
DGENRE=Country
TTITLE0=My San Antonio Rose
TTITLE1=I MIss You
TTITLE2=We're The Time Jumpers
TTITLE3=Table For Two
TTITLE4=Empty Rooms
TTITLE5=All Aboard
TTITLE6=Blue Highway Blue
TTITLE7=I Hear You Talkin'
TTITLE8=The True Love Meant For Me
TTITLE9=Texas Tornado
TTITLE10=I've Been Hearing Things About You
TTITLE11=Honky Tonkin'
TTITLE12=Bloodshot Eyes
TTITLE13=Sweet Rowena
TTITLE14=Leave Your Light On Lucy
TTITLE15=This Heartache
TTITLE16=Kid Sister
EXTD=
EXTT0=
EXTT1=
EXTT2=
EXTT3=
EXTT4=
EXTT5=
EXTT6=
EXTT7=
EXTT8=
EXTT9=
EXTT10=
EXTT11=
EXTT12=
EXTT13=
EXTT14=
EXTT15=
EXTT16=
PLAYORDER=
